<svg version="1.1" xmlns="http://www.w3.org/2000/svg" viewBox="-2544.6656683877122 -1044.480029296875 5248.025780768694 2574.336083984375"><desc>Created with Snap</desc><defs></defs><g><rect x="-2544.6656683877122" y="-1044.480029296875" width="5248.025780768694" height="2574.336083984375" fill="#9c1f16" style=""></rect><g transform="matrix(25.7964,0,0,25.7964,-2560.2113,-1060.058)"><g><path d="M74.265,60.41c0.964,2.929,1.401,5.966,1.261,9.015c2.584-0.989,5.013-2.49,7.095-4.572c0.244-0.244,0.41-0.527,0.637-0.78   c0.018-0.341,0.105-0.659,0.105-1.004c0-2.924-0.646-5.691-1.764-8.203C79.522,57.139,77.045,59.022,74.265,60.41z" fill="#ffd348" style=""></path><path d="M54.863,81.605c2.509,1.112,5.276,1.759,8.2,1.759c0.349,0,0.664-0.085,1.004-0.103c0.253-0.227,0.541-0.393,0.781-0.637   c2.08-2.085,3.585-4.516,4.572-7.104c-3.049,0.14-6.086-0.292-9.01-1.257C59.022,77.049,57.137,79.528,54.863,81.605z" fill="#ffd348" style=""></path><path d="M40.588,74.265c-2.925,0.965-5.965,1.396-9.013,1.257c0.988,2.588,2.49,5.023,4.573,7.104   c0.242,0.244,0.528,0.41,0.779,0.637c0.339,0.018,0.661,0.103,1.003,0.103c2.926,0,5.691-0.646,8.202-1.759   C43.861,79.528,41.976,77.049,40.588,74.265z" fill="#ffd348" style=""></path><path d="M26.731,60.41c-2.781-1.388-5.26-3.271-7.337-5.545c-1.112,2.512-1.758,5.279-1.758,8.203c0,0.345,0.085,0.663,0.1,1.004   c0.229,0.253,0.395,0.536,0.639,0.78c2.082,2.082,4.515,3.583,7.098,4.572C25.333,66.376,25.767,63.339,26.731,60.41z" fill="#ffd348" style=""></path><path d="M26.731,40.592c-0.964-2.929-1.398-5.966-1.259-9.016c-2.583,0.989-5.014,2.491-7.098,4.572   c-0.244,0.245-0.41,0.528-0.639,0.781c-0.015,0.341-0.1,0.659-0.1,1.004c0,2.924,0.646,5.69,1.76,8.205   C21.471,43.863,23.95,41.979,26.731,40.592z" fill="#ffd348" style=""></path><path d="M46.132,19.397c-2.511-1.114-5.275-1.76-8.202-1.76c-0.342,0-0.664,0.084-1.003,0.102   c-0.251,0.228-0.537,0.393-0.779,0.638c-2.083,2.08-3.585,4.515-4.573,7.103c3.048-0.14,6.088,0.293,9.013,1.257   C41.976,23.952,43.861,21.475,46.132,19.397z" fill="#ffd348" style=""></path><path d="M60.41,26.736c2.924-0.964,5.961-1.396,9.01-1.257c-0.99-2.588-2.492-5.017-4.572-7.103   c-0.24-0.245-0.528-0.41-0.781-0.638c-0.34-0.018-0.659-0.102-1.004-0.102c-2.924,0-5.691,0.646-8.2,1.76   C57.137,21.475,59.022,23.952,60.41,26.736z" fill="#ffd348" style=""></path><path d="M82.621,36.148c-2.082-2.081-4.511-3.583-7.095-4.572c0.14,3.05-0.297,6.087-1.261,9.016   c2.78,1.388,5.257,3.271,7.334,5.547c1.117-2.515,1.764-5.281,1.764-8.205c0-0.345-0.088-0.663-0.105-1.004   C83.031,36.677,82.865,36.394,82.621,36.148z" fill="#ffd348" style=""></path><path d="M58.228,63.068c0-0.166-0.048-0.319-0.052-0.484c-1.061-0.21-2.09-0.498-3.099-0.834c-0.462,0.921-0.89,1.851-1.469,2.719   c0.113,0.122,0.19,0.267,0.309,0.384c1.143,1.14,2.404,2.069,3.718,2.881C57.993,66.228,58.228,64.683,58.228,63.068z" fill="#ffd348" style=""></path><path d="M43.362,67.733c1.313-0.812,2.574-1.741,3.715-2.881c0.12-0.117,0.199-0.262,0.312-0.384   c-0.581-0.868-1.008-1.798-1.471-2.719c-1.008,0.336-2.038,0.624-3.1,0.834c-0.002,0.165-0.048,0.318-0.048,0.484   C42.771,64.683,43.006,66.228,43.362,67.733z" fill="#ffd348" style=""></path><path d="M36.148,53.922c-1.139,1.14-2.068,2.4-2.88,3.717c1.503,0.355,3.051,0.59,4.663,0.59c0.166,0,0.318-0.044,0.484-0.048   c0.209-1.06,0.495-2.094,0.833-3.102c-0.918-0.463-1.848-0.886-2.716-1.471C36.411,53.726,36.269,53.805,36.148,53.922z" fill="#ffd348" style=""></path><path d="M38.415,42.821c-0.166-0.006-0.319-0.05-0.484-0.05c-1.612,0-3.159,0.236-4.663,0.591c0.812,1.318,1.739,2.578,2.88,3.717   c0.12,0.118,0.262,0.196,0.384,0.314c0.868-0.583,1.797-1.008,2.716-1.471C38.91,44.916,38.625,43.881,38.415,42.821z" fill="#ffd348" style=""></path><path d="M42.771,37.934c0,0.166,0.046,0.318,0.048,0.484c1.062,0.21,2.092,0.498,3.1,0.834c0.462-0.921,0.89-1.851,1.471-2.719   c-0.113-0.123-0.192-0.267-0.312-0.385c-1.141-1.139-2.402-2.066-3.715-2.879C43.006,34.774,42.771,36.319,42.771,37.934z" fill="#ffd348" style=""></path><path d="M57.635,33.27c-1.314,0.812-2.575,1.74-3.718,2.879c-0.118,0.118-0.195,0.262-0.309,0.385   c0.579,0.868,1.007,1.798,1.469,2.719c1.008-0.336,2.038-0.624,3.099-0.834c0.004-0.166,0.052-0.318,0.052-0.484   C58.228,36.319,57.993,34.774,57.635,33.27z" fill="#ffd348" style=""></path><path d="M63.063,42.771c-0.166,0-0.314,0.044-0.48,0.05c-0.209,1.06-0.498,2.095-0.838,3.102c0.921,0.463,1.851,0.888,2.719,1.471   c0.122-0.118,0.266-0.196,0.384-0.314c1.139-1.139,2.067-2.398,2.883-3.717C66.226,43.008,64.678,42.771,63.063,42.771z" fill="#ffd348" style=""></path><path d="M48.074,49.493c-0.035,0.676-0.035,1.339,0,2.012c0.452,0.502,0.921,0.969,1.42,1.423c0.671,0.034,1.335,0.034,2.007,0   c0.5-0.454,0.972-0.926,1.423-1.423c0.035-0.673,0.033-1.336,0-2.008c-0.451-0.502-0.921-0.969-1.42-1.423   c-0.673-0.035-1.34-0.035-2.012,0C48.995,48.528,48.524,48.995,48.074,49.493z" fill="#ffd348" style=""></path><path d="M64.464,53.608c-0.868,0.585-1.798,1.008-2.719,1.471c0.34,1.008,0.628,2.042,0.838,3.102   c0.166,0.004,0.314,0.048,0.48,0.048c1.615,0,3.163-0.234,4.668-0.59c-0.816-1.316-1.745-2.577-2.883-3.717   C64.73,53.805,64.586,53.726,64.464,53.608z" fill="#ffd348" style=""></path><path d="M72.271,55.926c2.583-1.327,4.827-3.173,6.615-5.425c-1.788-2.252-4.031-4.098-6.615-5.425   c-1.091,1.929-2.357,3.784-3.998,5.425C69.914,52.142,71.179,53.996,72.271,55.926z" fill="#ffd348" style=""></path><path d="M62.138,31.245c0.585,2.133,0.925,4.367,0.925,6.688c2.322,0,4.555,0.341,6.689,0.93c0.868-2.745,1.143-5.603,0.82-8.436   C67.74,30.104,64.879,30.375,62.138,31.245z" fill="#ffd348" style=""></path><path d="M50.498,22.11c-2.253,1.794-4.099,4.033-5.424,6.616c1.927,1.096,3.782,2.361,5.424,4.002   c1.644-1.641,3.498-2.906,5.426-4.002C54.597,26.144,52.752,23.904,50.498,22.11z" fill="#ffd348" style=""></path><path d="M37.931,37.934c0-2.321,0.34-4.556,0.927-6.688c-2.74-0.87-5.601-1.141-8.432-0.817c-0.323,2.833-0.05,5.69,0.817,8.436   C33.377,38.274,35.612,37.934,37.931,37.934z" fill="#ffd348" style=""></path><path d="M22.108,50.501c1.794,2.252,4.034,4.098,6.618,5.425c1.091-1.93,2.356-3.784,3.999-5.425   c-1.643-1.641-2.908-3.496-4.001-5.425C26.143,46.403,23.902,48.249,22.108,50.501z" fill="#ffd348" style=""></path><path d="M38.858,69.757c-0.587-2.133-0.927-4.367-0.927-6.688c-2.319,0-4.553-0.341-6.688-0.93   c-0.868,2.745-1.14,5.604-0.817,8.436C33.257,70.896,36.118,70.627,38.858,69.757z" fill="#ffd348" style=""></path><path d="M50.498,78.891c2.255-1.793,4.1-4.032,5.426-6.616c-1.929-1.095-3.782-2.36-5.426-4c-1.642,1.64-3.497,2.905-5.424,4   C46.401,74.858,48.245,77.098,50.498,78.891z" fill="#ffd348" style=""></path><path d="M63.063,63.068c0,2.321-0.34,4.556-0.925,6.688c2.741,0.87,5.602,1.139,8.435,0.817c0.323-2.832,0.048-5.695-0.82-8.436   C67.618,62.728,65.385,63.068,63.063,63.068z" fill="#ffd348" style=""></path><path d="M87.425,44.026c-0.571,2.304-1.457,4.476-2.614,6.475c1.157,1.999,2.043,4.177,2.614,6.475   C88.844,52.771,88.844,48.231,87.425,44.026z" fill="#ffd348" style=""></path><path d="M81.233,29.05c-1.981-4.041-5.244-7.301-9.286-9.282c1.249,2.063,2.147,4.268,2.745,6.541   C76.966,26.907,79.165,27.802,81.233,29.05z" fill="#ffd348" style=""></path><path d="M56.971,13.576c-4.204-1.418-8.742-1.418-12.947,0c2.3,0.571,4.473,1.453,6.473,2.614   C52.5,15.029,54.671,14.147,56.971,13.576z" fill="#ffd348" style=""></path><path d="M29.047,19.768c-4.042,1.981-7.301,5.241-9.284,9.282c2.066-1.248,4.268-2.143,6.541-2.741   C26.904,24.035,27.798,21.831,29.047,19.768z" fill="#ffd348" style=""></path><path d="M13.571,56.973c0.574-2.3,1.458-4.473,2.616-6.472c-1.159-1.999-2.04-4.171-2.616-6.472   C12.158,48.231,12.158,52.771,13.571,56.973z" fill="#ffd348" style=""></path><path d="M19.765,71.952c1.981,4.041,5.24,7.297,9.279,9.282c-1.248-2.068-2.141-4.269-2.741-6.542   C24.031,74.095,21.829,73.2,19.765,71.952z" fill="#ffd348" style=""></path><path d="M44.024,87.426c4.205,1.418,8.746,1.418,12.947,0c-2.3-0.572-4.472-1.453-6.474-2.614   C48.498,85.973,46.324,86.854,44.024,87.426z" fill="#ffd348" style=""></path><path d="M71.952,81.234c4.037-1.985,7.3-5.241,9.281-9.282c-2.068,1.248-4.267,2.143-6.541,2.74   C74.095,76.966,73.2,79.166,71.952,81.234z" fill="#ffd348" style=""></path></g><desc>Created with Snap</desc><defs></defs></g><g><g transform="matrix(1.024,0,0,-1.024,0,0)"><path d="M107 -87Q79 -87 54 -72Q29 -56 29 -32Q29 -20 33 -5Q38 10 42 23Q73 119 100 202Q128 286 155 363Q183 441 214 519Q245 597 283 682Q245 675 217 662Q190 649 172 639Q155 629 148 629Q143 629 134 635Q125 642 118 650Q112 658 112 664Q139 676 176 689Q213 702 256 711Q299 720 342 720Q388 720 436 707Q484 695 524 670Q565 646 589 610Q614 574 614 525Q614 472 590 434Q567 397 528 371Q489 345 443 329Q398 313 353 305Q308 297 273 294Q238 291 220 291L213 291Q184 191 157 92Q130 -7 107 -87ZM220 317Q276 321 332 336Q388 351 434 378Q480 405 508 446Q536 487 536 541Q536 593 510 625Q484 657 442 673Q401 689 355 690Q318 619 284 521Q251 423 220 317ZM615 -32Q571 -32 554 -4Q537 25 537 61Q537 93 547 126Q557 159 574 188Q591 217 612 235Q633 253 655 253Q661 253 669 250Q678 248 682 244Q671 232 658 210Q646 188 635 162Q625 137 618 111Q612 86 612 65Q612 42 620 29Q628 16 646 16Q666 16 693 37Q721 59 746 90Q715 117 700 152Q686 188 686 233Q686 258 697 286Q708 314 731 333Q754 352 791 352Q833 352 849 328Q866 305 866 272Q866 235 846 188Q827 142 800 100Q814 92 831 92Q846 92 867 99Q888 106 907 122Q927 139 939 166L955 154Q934 105 897 82Q861 60 827 60Q814 60 801 62Q788 65 777 70Q743 28 700 -2Q658 -32 615 -32ZM769 120Q794 155 810 195Q827 236 827 270Q827 295 819 306Q812 318 799 318Q779 318 759 290Q739 263 739 221Q739 197 746 167Q754 138 769 120ZM1007 -46Q963 -46 937 -21Q912 5 912 57Q912 99 928 161Q944 223 968 289Q960 291 950 292Q941 294 933 298L933 325Q946 323 956 322Q967 321 979 320Q1000 373 1024 423Q1049 473 1073 512Q1097 551 1119 574Q1141 597 1157 597Q1167 597 1175 590Q1183 583 1183 570Q1183 551 1162 513Q1142 476 1111 425Q1081 375 1053 317Q1061 317 1069 317Q1078 317 1086 317Q1126 317 1162 318Q1198 320 1235 324L1235 296Q1180 290 1134 287Q1089 284 1050 284Q1047 284 1043 284Q1040 284 1037 284Q1015 233 999 180Q984 127 984 77Q984 35 997 17Q1010 0 1039 0Q1089 0 1141 46Q1193 92 1231 170L1245 160Q1220 102 1182 55Q1144 8 1099 -19Q1055 -46 1007 -46ZM1258 -47Q1226 -47 1202 -26Q1179 -4 1179 39Q1179 75 1195 116Q1211 157 1239 197Q1267 237 1303 270Q1339 303 1379 323Q1420 343 1460 343Q1502 343 1530 321Q1559 300 1559 265Q1559 238 1542 227Q1525 216 1500 220Q1502 228 1503 237Q1505 247 1505 256Q1505 277 1496 293Q1487 309 1461 309Q1433 309 1404 290Q1375 271 1348 240Q1321 209 1300 172Q1279 135 1267 99Q1255 63 1255 35Q1255 1 1280 1Q1303 1 1330 23Q1358 45 1386 79Q1415 113 1441 148Q1467 184 1486 211Q1490 216 1493 216Q1498 215 1509 211Q1520 208 1529 202Q1538 196 1538 186Q1538 176 1529 160Q1520 145 1509 126Q1498 107 1489 88Q1480 69 1480 51Q1480 38 1487 25Q1495 13 1512 13Q1537 13 1580 49Q1624 86 1669 169L1685 153Q1662 99 1628 58Q1595 17 1558 -7Q1521 -30 1484 -30Q1444 -30 1425 -6Q1406 19 1404 48Q1404 51 1404 54Q1405 58 1405 61Q1364 10 1330 -19Q1296 -47 1258 -47ZM1735 -46Q1691 -46 1665 -21Q1640 5 1640 57Q1640 99 1656 161Q1672 223 1696 289Q1688 291 1678 292Q1669 294 1661 298L1661 325Q1674 323 1684 322Q1695 321 1707 320Q1728 373 1752 423Q1777 473 1801 512Q1825 551 1847 574Q1869 597 1885 597Q1895 597 1903 590Q1911 583 1911 570Q1911 551 1890 513Q1870 476 1839 425Q1809 375 1781 317Q1789 317 1797 317Q1806 317 1814 317Q1854 317 1890 318Q1926 320 1963 324L1963 296Q1908 290 1862 287Q1817 284 1778 284Q1775 284 1771 284Q1768 284 1765 284Q1743 233 1727 180Q1712 127 1712 77Q1712 35 1725 17Q1738 0 1767 0Q1817 0 1869 46Q1921 92 1959 170L1973 160Q1948 102 1910 55Q1872 8 1827 -19Q1783 -46 1735 -46ZM2000 -32Q1956 -32 1939 -4Q1922 25 1922 61Q1922 93 1932 126Q1942 159 1959 188Q1976 217 1997 235Q2018 253 2040 253Q2046 253 2054 250Q2063 248 2067 244Q2056 232 2043 210Q2031 188 2020 162Q2010 137 2003 111Q1997 86 1997 65Q1997 42 2005 29Q2013 16 2031 16Q2051 16 2078 37Q2106 59 2131 90Q2100 117 2085 152Q2071 188 2071 233Q2071 258 2082 286Q2093 314 2116 333Q2139 352 2176 352Q2218 352 2234 328Q2251 305 2251 272Q2251 235 2231 188Q2212 142 2185 100Q2199 92 2216 92Q2231 92 2252 99Q2273 106 2292 122Q2312 139 2324 166L2340 154Q2319 105 2282 82Q2246 60 2212 60Q2199 60 2186 62Q2173 65 2162 70Q2128 28 2085 -2Q2043 -32 2000 -32ZM2154 120Q2179 155 2195 195Q2212 236 2212 270Q2212 295 2204 306Q2197 318 2184 318Q2164 318 2144 290Q2124 263 2124 221Q2124 197 2131 167Q2139 138 2154 120Z" fill="#ffffff" style=""></path></g></g><g transform="matrix(1,0,0,1,-5.12,1133.568)"><g transform="matrix(1.024,0,0,-1.024,0,0)"><path d="M153 -87Q94 -87 64 -68Q34 -48 34 -3Q34 5 43 5Q51 5 69 0Q88 -5 139 -5Q227 -5 300 14Q374 33 428 65Q482 98 512 138Q542 179 542 222Q542 262 518 286Q495 310 457 322Q419 335 374 339Q329 344 285 344Q266 344 247 343Q228 343 211 343Q189 265 167 183Q146 102 123 25Q95 25 74 40Q54 55 54 77Q54 87 58 102Q62 117 68 135Q74 154 88 199Q103 244 123 305Q144 366 169 433Q194 501 221 565Q248 630 274 681Q233 673 206 660Q180 648 164 638Q149 629 141 629Q136 629 127 635Q118 642 111 650Q104 658 104 664Q157 686 213 703Q270 720 351 720Q386 720 428 714Q470 709 508 692Q546 676 570 644Q595 612 595 558Q595 513 576 480Q557 448 525 425Q493 403 455 389Q417 375 380 367Q446 361 488 343Q531 326 555 303Q580 280 589 255Q599 230 599 206Q599 148 568 101Q538 54 488 19Q438 -16 378 -40Q318 -63 259 -75Q200 -87 153 -87ZM220 376Q275 378 329 388Q384 399 428 421Q472 443 498 478Q525 514 525 566Q525 616 499 642Q474 669 433 679Q392 690 346 690Q343 690 341 690Q339 690 337 689Q302 621 273 541Q245 461 220 376ZM689 -47Q657 -47 633 -26Q610 -4 610 39Q610 75 626 116Q642 157 670 197Q698 237 734 270Q770 303 810 323Q851 343 891 343Q933 343 961 321Q990 300 990 265Q990 238 973 227Q956 216 931 220Q933 228 934 237Q936 247 936 256Q936 277 927 293Q918 309 892 309Q864 309 835 290Q806 271 779 240Q752 209 731 172Q710 135 698 99Q686 63 686 35Q686 1 711 1Q734 1 761 23Q789 45 817 79Q846 113 872 148Q898 184 917 211Q921 216 924 216Q929 215 940 211Q951 208 960 202Q969 196 969 186Q969 176 960 160Q951 145 940 126Q929 107 920 88Q911 69 911 51Q911 38 918 25Q926 13 943 13Q968 13 1011 49Q1055 86 1100 169L1116 153Q1093 99 1059 58Q1026 17 989 -7Q952 -30 915 -30Q875 -30 856 -6Q837 19 835 48Q835 51 835 54Q836 58 836 61Q795 10 761 -19Q727 -47 689 -47ZM1409 -20Q1372 -20 1352 -1Q1333 18 1333 47Q1333 68 1340 90Q1347 113 1354 136Q1361 160 1361 182Q1361 206 1350 215Q1339 224 1324 224Q1294 224 1262 199Q1231 174 1201 136Q1171 99 1145 58Q1119 17 1100 -15Q1082 -15 1066 -9Q1050 -3 1039 12Q1040 17 1050 42Q1061 68 1074 104Q1087 141 1097 180Q1108 219 1108 252Q1115 259 1129 267Q1143 275 1158 275Q1190 275 1190 246Q1190 233 1184 204Q1178 176 1168 143Q1195 180 1226 214Q1258 248 1293 270Q1328 292 1364 292Q1405 292 1424 263Q1444 235 1444 200Q1444 170 1434 143Q1424 117 1414 93Q1405 70 1405 47Q1405 30 1412 22Q1420 15 1431 15Q1455 15 1480 38Q1506 62 1529 97Q1553 133 1571 169L1586 156Q1565 107 1539 67Q1513 27 1481 3Q1449 -20 1409 -20ZM1858 -38Q1828 -38 1806 -19Q1784 1 1771 31Q1758 61 1751 92Q1745 123 1745 146Q1758 148 1779 154Q1800 160 1822 170Q1844 181 1859 197Q1874 214 1874 237Q1874 256 1861 267Q1848 279 1828 279Q1799 279 1773 259Q1747 240 1725 208Q1704 177 1687 140Q1670 104 1657 70Q1644 37 1635 13Q1626 -13 1615 -22Q1605 -31 1588 -31Q1578 -31 1569 -24Q1560 -16 1555 1Q1551 19 1551 50Q1551 108 1568 179Q1585 251 1613 326Q1642 401 1676 470Q1710 539 1744 594Q1779 649 1809 681Q1839 714 1858 714Q1874 714 1884 694Q1895 674 1895 644Q1895 610 1880 568Q1865 526 1837 483Q1810 441 1772 403Q1735 365 1689 338Q1660 267 1644 199Q1629 132 1626 82Q1643 122 1666 167Q1689 212 1717 251Q1746 291 1779 315Q1812 340 1849 340Q1888 340 1916 313Q1945 286 1945 245Q1945 215 1929 192Q1913 170 1889 156Q1866 142 1842 135Q1818 128 1802 128Q1804 116 1809 96Q1815 76 1824 55Q1833 35 1847 21Q1861 7 1880 7Q1907 7 1933 29Q1959 52 1984 89Q2009 127 2029 173L2042 158Q2026 109 1996 63Q1967 18 1931 -10Q1895 -38 1858 -38ZM1714 396Q1748 425 1779 464Q1811 503 1831 544Q1852 586 1853 619Q1853 622 1852 623Q1852 624 1852 624Q1842 622 1819 590Q1797 558 1769 507Q1741 457 1714 396Z" fill="#ffffff" style=""></path></g></g></g></svg>